G04 #@! TF.GenerationSoftware,KiCad,Pcbnew,(5.1.5)-3*
G04 #@! TF.CreationDate,2020-05-15T18:58:21+01:00*
G04 #@! TF.ProjectId,3chip6502,33636869-7036-4353-9032-2e6b69636164,rev?*
G04 #@! TF.SameCoordinates,Original*
G04 #@! TF.FileFunction,Legend,Top*
G04 #@! TF.FilePolarity,Positive*
%FSLAX46Y46*%
G04 Gerber Fmt 4.6, Leading zero omitted, Abs format (unit mm)*
G04 Created by KiCad (PCBNEW (5.1.5)-3) date 2020-05-15 18:58:21*
%MOMM*%
%LPD*%
G04 APERTURE LIST*
%ADD10C,0.120000*%
%ADD11C,0.150000*%
G04 APERTURE END LIST*
D10*
X53734000Y-82804000D02*
G75*
G03X53734000Y-82804000I-1410000J0D01*
G01*
X51435000Y-80856667D02*
X52324000Y-79671333D01*
X53213000Y-80856667D02*
X51435000Y-80856667D01*
X52324000Y-79671333D02*
X53213000Y-80856667D01*
X53213000Y-79671333D02*
X51435000Y-79671333D01*
X52324000Y-79134000D02*
X52324000Y-81604000D01*
X125162000Y-100778000D02*
X126492000Y-100778000D01*
X125162000Y-102108000D02*
X125162000Y-100778000D01*
X127762000Y-100778000D02*
X130362000Y-100778000D01*
X127762000Y-103378000D02*
X127762000Y-100778000D01*
X125162000Y-103378000D02*
X127762000Y-103378000D01*
X130362000Y-100778000D02*
X130362000Y-126298000D01*
X125162000Y-103378000D02*
X125162000Y-126298000D01*
X125162000Y-126298000D02*
X130362000Y-126298000D01*
X117154000Y-75318000D02*
X99254000Y-75318000D01*
X117154000Y-126358000D02*
X117154000Y-75318000D01*
X99254000Y-126358000D02*
X117154000Y-126358000D01*
X99254000Y-75318000D02*
X99254000Y-126358000D01*
X114664000Y-75378000D02*
X109204000Y-75378000D01*
X114664000Y-126298000D02*
X114664000Y-75378000D01*
X101744000Y-126298000D02*
X114664000Y-126298000D01*
X101744000Y-75378000D02*
X101744000Y-126298000D01*
X107204000Y-75378000D02*
X101744000Y-75378000D01*
X109204000Y-75378000D02*
G75*
G02X107204000Y-75378000I-1000000J0D01*
G01*
X119597500Y-97775000D02*
G75*
G03X120347500Y-98525000I750000J0D01*
G01*
X120347500Y-85625000D02*
G75*
G03X119597500Y-86375000I0J-750000D01*
G01*
X132497500Y-86375000D02*
G75*
G03X131747500Y-85625000I-750000J0D01*
G01*
X132497500Y-98525000D02*
X132497500Y-86375000D01*
X131747500Y-85625000D02*
X120347500Y-85625000D01*
X119597500Y-86375000D02*
X119597500Y-97775000D01*
X120347500Y-98525000D02*
X132497500Y-98525000D01*
X68823000Y-125813500D02*
X68823000Y-125799500D01*
X68823000Y-127819500D02*
X68823000Y-127805500D01*
X73243000Y-125813500D02*
X73243000Y-125799500D01*
X73243000Y-127819500D02*
X73243000Y-127805500D01*
X73243000Y-125799500D02*
X68823000Y-125799500D01*
X73243000Y-127819500D02*
X68823000Y-127819500D01*
X60264522Y-123193022D02*
G75*
G03X62103000Y-127631500I1838478J-1838478D01*
G01*
X63941478Y-123193022D02*
G75*
G02X62103000Y-127631500I-1838478J-1838478D01*
G01*
X63903000Y-123181500D02*
X60303000Y-123181500D01*
X68100500Y-122261000D02*
X68100500Y-124881000D01*
X68100500Y-124881000D02*
X74520500Y-124881000D01*
X74520500Y-124881000D02*
X74520500Y-122261000D01*
X74520500Y-122261000D02*
X68100500Y-122261000D01*
X67210500Y-123571000D02*
X68100500Y-123571000D01*
X75410500Y-123571000D02*
X74520500Y-123571000D01*
X61737000Y-68440500D02*
X60437000Y-68440500D01*
X61087000Y-67840500D02*
X61087000Y-69040500D01*
X61441000Y-73851500D02*
X60733000Y-73851500D01*
X61646000Y-73811500D02*
X60528000Y-73811500D01*
X61794000Y-73771500D02*
X60380000Y-73771500D01*
X61916000Y-73731500D02*
X60258000Y-73731500D01*
X62021000Y-73691500D02*
X60153000Y-73691500D01*
X62115000Y-73651500D02*
X60059000Y-73651500D01*
X62199000Y-73611500D02*
X59975000Y-73611500D01*
X62276000Y-73571500D02*
X59898000Y-73571500D01*
X62348000Y-73531500D02*
X59826000Y-73531500D01*
X60107000Y-73491500D02*
X59760000Y-73491500D01*
X62414000Y-73491500D02*
X62067000Y-73491500D01*
X60107000Y-73451500D02*
X59697000Y-73451500D01*
X62477000Y-73451500D02*
X62067000Y-73451500D01*
X60107000Y-73411500D02*
X59639000Y-73411500D01*
X62535000Y-73411500D02*
X62067000Y-73411500D01*
X60107000Y-73371500D02*
X59583000Y-73371500D01*
X62591000Y-73371500D02*
X62067000Y-73371500D01*
X60107000Y-73331500D02*
X59531000Y-73331500D01*
X62643000Y-73331500D02*
X62067000Y-73331500D01*
X60107000Y-73291500D02*
X59481000Y-73291500D01*
X62693000Y-73291500D02*
X62067000Y-73291500D01*
X60107000Y-73251500D02*
X59433000Y-73251500D01*
X62741000Y-73251500D02*
X62067000Y-73251500D01*
X60107000Y-73211500D02*
X59388000Y-73211500D01*
X62786000Y-73211500D02*
X62067000Y-73211500D01*
X60107000Y-73171500D02*
X59345000Y-73171500D01*
X62829000Y-73171500D02*
X62067000Y-73171500D01*
X60107000Y-73131500D02*
X59304000Y-73131500D01*
X62870000Y-73131500D02*
X62067000Y-73131500D01*
X60107000Y-73091500D02*
X59264000Y-73091500D01*
X62910000Y-73091500D02*
X62067000Y-73091500D01*
X60107000Y-73051500D02*
X59226000Y-73051500D01*
X62948000Y-73051500D02*
X62067000Y-73051500D01*
X60107000Y-73011500D02*
X59190000Y-73011500D01*
X62984000Y-73011500D02*
X62067000Y-73011500D01*
X60107000Y-72971500D02*
X59155000Y-72971500D01*
X63019000Y-72971500D02*
X62067000Y-72971500D01*
X60107000Y-72931500D02*
X59122000Y-72931500D01*
X63052000Y-72931500D02*
X62067000Y-72931500D01*
X60107000Y-72891500D02*
X59090000Y-72891500D01*
X63084000Y-72891500D02*
X62067000Y-72891500D01*
X60107000Y-72851500D02*
X59059000Y-72851500D01*
X63115000Y-72851500D02*
X62067000Y-72851500D01*
X60107000Y-72811500D02*
X59029000Y-72811500D01*
X63145000Y-72811500D02*
X62067000Y-72811500D01*
X60107000Y-72771500D02*
X59001000Y-72771500D01*
X63173000Y-72771500D02*
X62067000Y-72771500D01*
X60107000Y-72731500D02*
X58974000Y-72731500D01*
X63200000Y-72731500D02*
X62067000Y-72731500D01*
X60107000Y-72691500D02*
X58947000Y-72691500D01*
X63227000Y-72691500D02*
X62067000Y-72691500D01*
X60107000Y-72651500D02*
X58922000Y-72651500D01*
X63252000Y-72651500D02*
X62067000Y-72651500D01*
X60107000Y-72611500D02*
X58898000Y-72611500D01*
X63276000Y-72611500D02*
X62067000Y-72611500D01*
X60107000Y-72571500D02*
X58875000Y-72571500D01*
X63299000Y-72571500D02*
X62067000Y-72571500D01*
X60107000Y-72531500D02*
X58853000Y-72531500D01*
X63321000Y-72531500D02*
X62067000Y-72531500D01*
X60107000Y-72491500D02*
X58831000Y-72491500D01*
X63343000Y-72491500D02*
X62067000Y-72491500D01*
X60107000Y-72451500D02*
X58811000Y-72451500D01*
X63363000Y-72451500D02*
X62067000Y-72451500D01*
X60107000Y-72411500D02*
X58791000Y-72411500D01*
X63383000Y-72411500D02*
X62067000Y-72411500D01*
X60107000Y-72371500D02*
X58772000Y-72371500D01*
X63402000Y-72371500D02*
X62067000Y-72371500D01*
X60107000Y-72331500D02*
X58754000Y-72331500D01*
X63420000Y-72331500D02*
X62067000Y-72331500D01*
X60107000Y-72291500D02*
X58737000Y-72291500D01*
X63437000Y-72291500D02*
X62067000Y-72291500D01*
X60107000Y-72251500D02*
X58721000Y-72251500D01*
X63453000Y-72251500D02*
X62067000Y-72251500D01*
X60107000Y-72211500D02*
X58705000Y-72211500D01*
X63469000Y-72211500D02*
X62067000Y-72211500D01*
X60107000Y-72171500D02*
X58691000Y-72171500D01*
X63483000Y-72171500D02*
X62067000Y-72171500D01*
X60107000Y-72131500D02*
X58677000Y-72131500D01*
X63497000Y-72131500D02*
X62067000Y-72131500D01*
X60107000Y-72091500D02*
X58663000Y-72091500D01*
X63511000Y-72091500D02*
X62067000Y-72091500D01*
X60107000Y-72051500D02*
X58651000Y-72051500D01*
X63523000Y-72051500D02*
X62067000Y-72051500D01*
X60107000Y-72011500D02*
X58639000Y-72011500D01*
X63535000Y-72011500D02*
X62067000Y-72011500D01*
X60107000Y-71970500D02*
X58627000Y-71970500D01*
X63547000Y-71970500D02*
X62067000Y-71970500D01*
X60107000Y-71930500D02*
X58617000Y-71930500D01*
X63557000Y-71930500D02*
X62067000Y-71930500D01*
X60107000Y-71890500D02*
X58607000Y-71890500D01*
X63567000Y-71890500D02*
X62067000Y-71890500D01*
X60107000Y-71850500D02*
X58598000Y-71850500D01*
X63576000Y-71850500D02*
X62067000Y-71850500D01*
X60107000Y-71810500D02*
X58589000Y-71810500D01*
X63585000Y-71810500D02*
X62067000Y-71810500D01*
X60107000Y-71770500D02*
X58581000Y-71770500D01*
X63593000Y-71770500D02*
X62067000Y-71770500D01*
X60107000Y-71730500D02*
X58574000Y-71730500D01*
X63600000Y-71730500D02*
X62067000Y-71730500D01*
X60107000Y-71690500D02*
X58568000Y-71690500D01*
X63606000Y-71690500D02*
X62067000Y-71690500D01*
X60107000Y-71650500D02*
X58562000Y-71650500D01*
X63612000Y-71650500D02*
X62067000Y-71650500D01*
X60107000Y-71610500D02*
X58556000Y-71610500D01*
X63618000Y-71610500D02*
X62067000Y-71610500D01*
X60107000Y-71570500D02*
X58552000Y-71570500D01*
X63622000Y-71570500D02*
X62067000Y-71570500D01*
X63626000Y-71530500D02*
X58548000Y-71530500D01*
X63630000Y-71490500D02*
X58544000Y-71490500D01*
X63633000Y-71450500D02*
X58541000Y-71450500D01*
X63635000Y-71410500D02*
X58539000Y-71410500D01*
X63636000Y-71370500D02*
X58538000Y-71370500D01*
X63637000Y-71330500D02*
X58537000Y-71330500D01*
X63637000Y-71290500D02*
X58537000Y-71290500D01*
X59907277Y-73596222D02*
G75*
G03X62267000Y-73596080I1179723J2305722D01*
G01*
X59907277Y-73596222D02*
G75*
G02X59907000Y-68984920I1179723J2305722D01*
G01*
X62266723Y-73596222D02*
G75*
G03X62267000Y-68984920I-1179723J2305722D01*
G01*
X95578500Y-74402000D02*
X95578500Y-74416000D01*
X95578500Y-72396000D02*
X95578500Y-72410000D01*
X91158500Y-74402000D02*
X91158500Y-74416000D01*
X91158500Y-72396000D02*
X91158500Y-72410000D01*
X91158500Y-74416000D02*
X95578500Y-74416000D01*
X91158500Y-72396000D02*
X95578500Y-72396000D01*
X104993000Y-74352500D02*
X100573000Y-74352500D01*
X104993000Y-72332500D02*
X100573000Y-72332500D01*
X104993000Y-74352500D02*
X104993000Y-74338500D01*
X104993000Y-72346500D02*
X104993000Y-72332500D01*
X100573000Y-74352500D02*
X100573000Y-74338500D01*
X100573000Y-72346500D02*
X100573000Y-72332500D01*
X125059000Y-84752500D02*
X125059000Y-84766500D01*
X125059000Y-82746500D02*
X125059000Y-82760500D01*
X120639000Y-84752500D02*
X120639000Y-84766500D01*
X120639000Y-82746500D02*
X120639000Y-82760500D01*
X120639000Y-84766500D02*
X125059000Y-84766500D01*
X120639000Y-82746500D02*
X125059000Y-82746500D01*
X54610000Y-88900000D02*
G75*
G03X54610000Y-88900000I-2286000J0D01*
G01*
X54610000Y-96520000D02*
G75*
G03X54610000Y-96520000I-2286000J0D01*
G01*
X66321500Y-76136500D02*
X67211500Y-76136500D01*
X74521500Y-76136500D02*
X73631500Y-76136500D01*
X67211500Y-77446500D02*
X73631500Y-77446500D01*
X67211500Y-74826500D02*
X67211500Y-77446500D01*
X73631500Y-74826500D02*
X67211500Y-74826500D01*
X73631500Y-77446500D02*
X73631500Y-74826500D01*
X73695000Y-80939000D02*
X73695000Y-78319000D01*
X73695000Y-78319000D02*
X67275000Y-78319000D01*
X67275000Y-78319000D02*
X67275000Y-80939000D01*
X67275000Y-80939000D02*
X73695000Y-80939000D01*
X74585000Y-79629000D02*
X73695000Y-79629000D01*
X66385000Y-79629000D02*
X67275000Y-79629000D01*
X66385000Y-83312000D02*
X67275000Y-83312000D01*
X74585000Y-83312000D02*
X73695000Y-83312000D01*
X67275000Y-84622000D02*
X73695000Y-84622000D01*
X67275000Y-82002000D02*
X67275000Y-84622000D01*
X73695000Y-82002000D02*
X67275000Y-82002000D01*
X73695000Y-84622000D02*
X73695000Y-82002000D01*
X74585000Y-72580500D02*
X73695000Y-72580500D01*
X66385000Y-72580500D02*
X67275000Y-72580500D01*
X73695000Y-71270500D02*
X67275000Y-71270500D01*
X73695000Y-73890500D02*
X73695000Y-71270500D01*
X67275000Y-73890500D02*
X73695000Y-73890500D01*
X67275000Y-71270500D02*
X67275000Y-73890500D01*
X122202500Y-79398500D02*
X122202500Y-82018500D01*
X122202500Y-82018500D02*
X128622500Y-82018500D01*
X128622500Y-82018500D02*
X128622500Y-79398500D01*
X128622500Y-79398500D02*
X122202500Y-79398500D01*
X121312500Y-80708500D02*
X122202500Y-80708500D01*
X129512500Y-80708500D02*
X128622500Y-80708500D01*
X88693500Y-75378000D02*
G75*
G02X86693500Y-75378000I-1000000J0D01*
G01*
X86693500Y-75378000D02*
X81233500Y-75378000D01*
X81233500Y-75378000D02*
X81233500Y-126298000D01*
X81233500Y-126298000D02*
X94153500Y-126298000D01*
X94153500Y-126298000D02*
X94153500Y-75378000D01*
X94153500Y-75378000D02*
X88693500Y-75378000D01*
X78743500Y-75318000D02*
X78743500Y-126358000D01*
X78743500Y-126358000D02*
X96643500Y-126358000D01*
X96643500Y-126358000D02*
X96643500Y-75318000D01*
X96643500Y-75318000D02*
X78743500Y-75318000D01*
X59038500Y-77714500D02*
X60548500Y-77714500D01*
X59038500Y-81415500D02*
X60548500Y-81415500D01*
X60548500Y-84685500D02*
X60548500Y-74445500D01*
X59038500Y-74445500D02*
X63679500Y-74445500D01*
X59038500Y-84685500D02*
X63679500Y-84685500D01*
X63679500Y-84685500D02*
X63679500Y-74445500D01*
X59038500Y-84685500D02*
X59038500Y-74445500D01*
X61548500Y-121218000D02*
X67008500Y-121218000D01*
X61548500Y-85538000D02*
X61548500Y-121218000D01*
X74468500Y-85538000D02*
X61548500Y-85538000D01*
X74468500Y-121218000D02*
X74468500Y-85538000D01*
X69008500Y-121218000D02*
X74468500Y-121218000D01*
X67008500Y-121218000D02*
G75*
G02X69008500Y-121218000I1000000J0D01*
G01*
X79919000Y-72346500D02*
X79919000Y-72332500D01*
X79919000Y-74352500D02*
X79919000Y-74338500D01*
X84339000Y-72346500D02*
X84339000Y-72332500D01*
X84339000Y-74352500D02*
X84339000Y-74338500D01*
X84339000Y-72332500D02*
X79919000Y-72332500D01*
X84339000Y-74352500D02*
X79919000Y-74352500D01*
X128400500Y-73155500D02*
X129730500Y-73155500D01*
X128400500Y-74485500D02*
X128400500Y-73155500D01*
X128400500Y-75755500D02*
X131060500Y-75755500D01*
X131060500Y-75755500D02*
X131060500Y-78355500D01*
X128400500Y-75755500D02*
X128400500Y-78355500D01*
X128400500Y-78355500D02*
X131060500Y-78355500D01*
X124980500Y-76596000D02*
X124980500Y-75296000D01*
X125580500Y-75946000D02*
X124380500Y-75946000D01*
X119569500Y-76300000D02*
X119569500Y-75592000D01*
X119609500Y-76505000D02*
X119609500Y-75387000D01*
X119649500Y-76653000D02*
X119649500Y-75239000D01*
X119689500Y-76775000D02*
X119689500Y-75117000D01*
X119729500Y-76880000D02*
X119729500Y-75012000D01*
X119769500Y-76974000D02*
X119769500Y-74918000D01*
X119809500Y-77058000D02*
X119809500Y-74834000D01*
X119849500Y-77135000D02*
X119849500Y-74757000D01*
X119889500Y-77207000D02*
X119889500Y-74685000D01*
X119929500Y-74966000D02*
X119929500Y-74619000D01*
X119929500Y-77273000D02*
X119929500Y-76926000D01*
X119969500Y-74966000D02*
X119969500Y-74556000D01*
X119969500Y-77336000D02*
X119969500Y-76926000D01*
X120009500Y-74966000D02*
X120009500Y-74498000D01*
X120009500Y-77394000D02*
X120009500Y-76926000D01*
X120049500Y-74966000D02*
X120049500Y-74442000D01*
X120049500Y-77450000D02*
X120049500Y-76926000D01*
X120089500Y-74966000D02*
X120089500Y-74390000D01*
X120089500Y-77502000D02*
X120089500Y-76926000D01*
X120129500Y-74966000D02*
X120129500Y-74340000D01*
X120129500Y-77552000D02*
X120129500Y-76926000D01*
X120169500Y-74966000D02*
X120169500Y-74292000D01*
X120169500Y-77600000D02*
X120169500Y-76926000D01*
X120209500Y-74966000D02*
X120209500Y-74247000D01*
X120209500Y-77645000D02*
X120209500Y-76926000D01*
X120249500Y-74966000D02*
X120249500Y-74204000D01*
X120249500Y-77688000D02*
X120249500Y-76926000D01*
X120289500Y-74966000D02*
X120289500Y-74163000D01*
X120289500Y-77729000D02*
X120289500Y-76926000D01*
X120329500Y-74966000D02*
X120329500Y-74123000D01*
X120329500Y-77769000D02*
X120329500Y-76926000D01*
X120369500Y-74966000D02*
X120369500Y-74085000D01*
X120369500Y-77807000D02*
X120369500Y-76926000D01*
X120409500Y-74966000D02*
X120409500Y-74049000D01*
X120409500Y-77843000D02*
X120409500Y-76926000D01*
X120449500Y-74966000D02*
X120449500Y-74014000D01*
X120449500Y-77878000D02*
X120449500Y-76926000D01*
X120489500Y-74966000D02*
X120489500Y-73981000D01*
X120489500Y-77911000D02*
X120489500Y-76926000D01*
X120529500Y-74966000D02*
X120529500Y-73949000D01*
X120529500Y-77943000D02*
X120529500Y-76926000D01*
X120569500Y-74966000D02*
X120569500Y-73918000D01*
X120569500Y-77974000D02*
X120569500Y-76926000D01*
X120609500Y-74966000D02*
X120609500Y-73888000D01*
X120609500Y-78004000D02*
X120609500Y-76926000D01*
X120649500Y-74966000D02*
X120649500Y-73860000D01*
X120649500Y-78032000D02*
X120649500Y-76926000D01*
X120689500Y-74966000D02*
X120689500Y-73833000D01*
X120689500Y-78059000D02*
X120689500Y-76926000D01*
X120729500Y-74966000D02*
X120729500Y-73806000D01*
X120729500Y-78086000D02*
X120729500Y-76926000D01*
X120769500Y-74966000D02*
X120769500Y-73781000D01*
X120769500Y-78111000D02*
X120769500Y-76926000D01*
X120809500Y-74966000D02*
X120809500Y-73757000D01*
X120809500Y-78135000D02*
X120809500Y-76926000D01*
X120849500Y-74966000D02*
X120849500Y-73734000D01*
X120849500Y-78158000D02*
X120849500Y-76926000D01*
X120889500Y-74966000D02*
X120889500Y-73712000D01*
X120889500Y-78180000D02*
X120889500Y-76926000D01*
X120929500Y-74966000D02*
X120929500Y-73690000D01*
X120929500Y-78202000D02*
X120929500Y-76926000D01*
X120969500Y-74966000D02*
X120969500Y-73670000D01*
X120969500Y-78222000D02*
X120969500Y-76926000D01*
X121009500Y-74966000D02*
X121009500Y-73650000D01*
X121009500Y-78242000D02*
X121009500Y-76926000D01*
X121049500Y-74966000D02*
X121049500Y-73631000D01*
X121049500Y-78261000D02*
X121049500Y-76926000D01*
X121089500Y-74966000D02*
X121089500Y-73613000D01*
X121089500Y-78279000D02*
X121089500Y-76926000D01*
X121129500Y-74966000D02*
X121129500Y-73596000D01*
X121129500Y-78296000D02*
X121129500Y-76926000D01*
X121169500Y-74966000D02*
X121169500Y-73580000D01*
X121169500Y-78312000D02*
X121169500Y-76926000D01*
X121209500Y-74966000D02*
X121209500Y-73564000D01*
X121209500Y-78328000D02*
X121209500Y-76926000D01*
X121249500Y-74966000D02*
X121249500Y-73550000D01*
X121249500Y-78342000D02*
X121249500Y-76926000D01*
X121289500Y-74966000D02*
X121289500Y-73536000D01*
X121289500Y-78356000D02*
X121289500Y-76926000D01*
X121329500Y-74966000D02*
X121329500Y-73522000D01*
X121329500Y-78370000D02*
X121329500Y-76926000D01*
X121369500Y-74966000D02*
X121369500Y-73510000D01*
X121369500Y-78382000D02*
X121369500Y-76926000D01*
X121409500Y-74966000D02*
X121409500Y-73498000D01*
X121409500Y-78394000D02*
X121409500Y-76926000D01*
X121450500Y-74966000D02*
X121450500Y-73486000D01*
X121450500Y-78406000D02*
X121450500Y-76926000D01*
X121490500Y-74966000D02*
X121490500Y-73476000D01*
X121490500Y-78416000D02*
X121490500Y-76926000D01*
X121530500Y-74966000D02*
X121530500Y-73466000D01*
X121530500Y-78426000D02*
X121530500Y-76926000D01*
X121570500Y-74966000D02*
X121570500Y-73457000D01*
X121570500Y-78435000D02*
X121570500Y-76926000D01*
X121610500Y-74966000D02*
X121610500Y-73448000D01*
X121610500Y-78444000D02*
X121610500Y-76926000D01*
X121650500Y-74966000D02*
X121650500Y-73440000D01*
X121650500Y-78452000D02*
X121650500Y-76926000D01*
X121690500Y-74966000D02*
X121690500Y-73433000D01*
X121690500Y-78459000D02*
X121690500Y-76926000D01*
X121730500Y-74966000D02*
X121730500Y-73427000D01*
X121730500Y-78465000D02*
X121730500Y-76926000D01*
X121770500Y-74966000D02*
X121770500Y-73421000D01*
X121770500Y-78471000D02*
X121770500Y-76926000D01*
X121810500Y-74966000D02*
X121810500Y-73415000D01*
X121810500Y-78477000D02*
X121810500Y-76926000D01*
X121850500Y-74966000D02*
X121850500Y-73411000D01*
X121850500Y-78481000D02*
X121850500Y-76926000D01*
X121890500Y-78485000D02*
X121890500Y-73407000D01*
X121930500Y-78489000D02*
X121930500Y-73403000D01*
X121970500Y-78492000D02*
X121970500Y-73400000D01*
X122010500Y-78494000D02*
X122010500Y-73398000D01*
X122050500Y-78495000D02*
X122050500Y-73397000D01*
X122090500Y-78496000D02*
X122090500Y-73396000D01*
X122130500Y-78496000D02*
X122130500Y-73396000D01*
X119824778Y-74766277D02*
G75*
G03X119824920Y-77126000I2305722J-1179723D01*
G01*
X119824778Y-74766277D02*
G75*
G02X124436080Y-74766000I2305722J-1179723D01*
G01*
X119824778Y-77125723D02*
G75*
G03X124436080Y-77126000I2305722J1179723D01*
G01*
D11*
X55186380Y-81002095D02*
X54186380Y-81002095D01*
X54186380Y-80764000D01*
X54234000Y-80621142D01*
X54329238Y-80525904D01*
X54424476Y-80478285D01*
X54614952Y-80430666D01*
X54757809Y-80430666D01*
X54948285Y-80478285D01*
X55043523Y-80525904D01*
X55138761Y-80621142D01*
X55186380Y-80764000D01*
X55186380Y-81002095D01*
X55186380Y-79478285D02*
X55186380Y-80049714D01*
X55186380Y-79764000D02*
X54186380Y-79764000D01*
X54329238Y-79859238D01*
X54424476Y-79954476D01*
X54472095Y-80049714D01*
X127428666Y-99230380D02*
X127428666Y-99944666D01*
X127381047Y-100087523D01*
X127285809Y-100182761D01*
X127142952Y-100230380D01*
X127047714Y-100230380D01*
X127809619Y-99230380D02*
X128428666Y-99230380D01*
X128095333Y-99611333D01*
X128238190Y-99611333D01*
X128333428Y-99658952D01*
X128381047Y-99706571D01*
X128428666Y-99801809D01*
X128428666Y-100039904D01*
X128381047Y-100135142D01*
X128333428Y-100182761D01*
X128238190Y-100230380D01*
X127952476Y-100230380D01*
X127857238Y-100182761D01*
X127809619Y-100135142D01*
X107442095Y-73830380D02*
X107442095Y-74639904D01*
X107489714Y-74735142D01*
X107537333Y-74782761D01*
X107632571Y-74830380D01*
X107823047Y-74830380D01*
X107918285Y-74782761D01*
X107965904Y-74735142D01*
X108013523Y-74639904D01*
X108013523Y-73830380D01*
X108442095Y-73925619D02*
X108489714Y-73878000D01*
X108584952Y-73830380D01*
X108823047Y-73830380D01*
X108918285Y-73878000D01*
X108965904Y-73925619D01*
X109013523Y-74020857D01*
X109013523Y-74116095D01*
X108965904Y-74258952D01*
X108394476Y-74830380D01*
X109013523Y-74830380D01*
X118049880Y-92884523D02*
X119049880Y-92217857D01*
X118049880Y-92217857D02*
X119049880Y-92884523D01*
X119049880Y-91313095D02*
X119049880Y-91884523D01*
X119049880Y-91598809D02*
X118049880Y-91598809D01*
X118192738Y-91694047D01*
X118287976Y-91789285D01*
X118335595Y-91884523D01*
X75842833Y-127928642D02*
X75795214Y-127976261D01*
X75652357Y-128023880D01*
X75557119Y-128023880D01*
X75414261Y-127976261D01*
X75319023Y-127881023D01*
X75271404Y-127785785D01*
X75223785Y-127595309D01*
X75223785Y-127452452D01*
X75271404Y-127261976D01*
X75319023Y-127166738D01*
X75414261Y-127071500D01*
X75557119Y-127023880D01*
X75652357Y-127023880D01*
X75795214Y-127071500D01*
X75842833Y-127119119D01*
X76176166Y-127023880D02*
X76795214Y-127023880D01*
X76461880Y-127404833D01*
X76604738Y-127404833D01*
X76699976Y-127452452D01*
X76747595Y-127500071D01*
X76795214Y-127595309D01*
X76795214Y-127833404D01*
X76747595Y-127928642D01*
X76699976Y-127976261D01*
X76604738Y-128023880D01*
X76319023Y-128023880D01*
X76223785Y-127976261D01*
X76176166Y-127928642D01*
X62007761Y-129139119D02*
X61912523Y-129091500D01*
X61817285Y-128996261D01*
X61674428Y-128853404D01*
X61579190Y-128805785D01*
X61483952Y-128805785D01*
X61531571Y-129043880D02*
X61436333Y-128996261D01*
X61341095Y-128901023D01*
X61293476Y-128710547D01*
X61293476Y-128377214D01*
X61341095Y-128186738D01*
X61436333Y-128091500D01*
X61531571Y-128043880D01*
X61722047Y-128043880D01*
X61817285Y-128091500D01*
X61912523Y-128186738D01*
X61960142Y-128377214D01*
X61960142Y-128710547D01*
X61912523Y-128901023D01*
X61817285Y-128996261D01*
X61722047Y-129043880D01*
X61531571Y-129043880D01*
X62912523Y-129043880D02*
X62341095Y-129043880D01*
X62626809Y-129043880D02*
X62626809Y-128043880D01*
X62531571Y-128186738D01*
X62436333Y-128281976D01*
X62341095Y-128329595D01*
X75906333Y-126499880D02*
X75573000Y-126023690D01*
X75334904Y-126499880D02*
X75334904Y-125499880D01*
X75715857Y-125499880D01*
X75811095Y-125547500D01*
X75858714Y-125595119D01*
X75906333Y-125690357D01*
X75906333Y-125833214D01*
X75858714Y-125928452D01*
X75811095Y-125976071D01*
X75715857Y-126023690D01*
X75334904Y-126023690D01*
X76858714Y-126499880D02*
X76287285Y-126499880D01*
X76573000Y-126499880D02*
X76573000Y-125499880D01*
X76477761Y-125642738D01*
X76382523Y-125737976D01*
X76287285Y-125785595D01*
X65254142Y-71457166D02*
X65301761Y-71504785D01*
X65349380Y-71647642D01*
X65349380Y-71742880D01*
X65301761Y-71885738D01*
X65206523Y-71980976D01*
X65111285Y-72028595D01*
X64920809Y-72076214D01*
X64777952Y-72076214D01*
X64587476Y-72028595D01*
X64492238Y-71980976D01*
X64397000Y-71885738D01*
X64349380Y-71742880D01*
X64349380Y-71647642D01*
X64397000Y-71504785D01*
X64444619Y-71457166D01*
X65349380Y-70504785D02*
X65349380Y-71076214D01*
X65349380Y-70790500D02*
X64349380Y-70790500D01*
X64492238Y-70885738D01*
X64587476Y-70980976D01*
X64635095Y-71076214D01*
X93201833Y-71503142D02*
X93154214Y-71550761D01*
X93011357Y-71598380D01*
X92916119Y-71598380D01*
X92773261Y-71550761D01*
X92678023Y-71455523D01*
X92630404Y-71360285D01*
X92582785Y-71169809D01*
X92582785Y-71026952D01*
X92630404Y-70836476D01*
X92678023Y-70741238D01*
X92773261Y-70646000D01*
X92916119Y-70598380D01*
X93011357Y-70598380D01*
X93154214Y-70646000D01*
X93201833Y-70693619D01*
X93582785Y-70693619D02*
X93630404Y-70646000D01*
X93725642Y-70598380D01*
X93963738Y-70598380D01*
X94058976Y-70646000D01*
X94106595Y-70693619D01*
X94154214Y-70788857D01*
X94154214Y-70884095D01*
X94106595Y-71026952D01*
X93535166Y-71598380D01*
X94154214Y-71598380D01*
X102616333Y-75959642D02*
X102568714Y-76007261D01*
X102425857Y-76054880D01*
X102330619Y-76054880D01*
X102187761Y-76007261D01*
X102092523Y-75912023D01*
X102044904Y-75816785D01*
X101997285Y-75626309D01*
X101997285Y-75483452D01*
X102044904Y-75292976D01*
X102092523Y-75197738D01*
X102187761Y-75102500D01*
X102330619Y-75054880D01*
X102425857Y-75054880D01*
X102568714Y-75102500D01*
X102616333Y-75150119D01*
X103473476Y-75388214D02*
X103473476Y-76054880D01*
X103235380Y-75007261D02*
X102997285Y-75721547D01*
X103616333Y-75721547D01*
X127785833Y-84113642D02*
X127738214Y-84161261D01*
X127595357Y-84208880D01*
X127500119Y-84208880D01*
X127357261Y-84161261D01*
X127262023Y-84066023D01*
X127214404Y-83970785D01*
X127166785Y-83780309D01*
X127166785Y-83637452D01*
X127214404Y-83446976D01*
X127262023Y-83351738D01*
X127357261Y-83256500D01*
X127500119Y-83208880D01*
X127595357Y-83208880D01*
X127738214Y-83256500D01*
X127785833Y-83304119D01*
X128690595Y-83208880D02*
X128214404Y-83208880D01*
X128166785Y-83685071D01*
X128214404Y-83637452D01*
X128309642Y-83589833D01*
X128547738Y-83589833D01*
X128642976Y-83637452D01*
X128690595Y-83685071D01*
X128738214Y-83780309D01*
X128738214Y-84018404D01*
X128690595Y-84113642D01*
X128642976Y-84161261D01*
X128547738Y-84208880D01*
X128309642Y-84208880D01*
X128214404Y-84161261D01*
X128166785Y-84113642D01*
X51990666Y-85304380D02*
X51990666Y-86018666D01*
X51943047Y-86161523D01*
X51847809Y-86256761D01*
X51704952Y-86304380D01*
X51609714Y-86304380D01*
X52990666Y-86304380D02*
X52419238Y-86304380D01*
X52704952Y-86304380D02*
X52704952Y-85304380D01*
X52609714Y-85447238D01*
X52514476Y-85542476D01*
X52419238Y-85590095D01*
X51990666Y-92924380D02*
X51990666Y-93638666D01*
X51943047Y-93781523D01*
X51847809Y-93876761D01*
X51704952Y-93924380D01*
X51609714Y-93924380D01*
X52419238Y-93019619D02*
X52466857Y-92972000D01*
X52562095Y-92924380D01*
X52800190Y-92924380D01*
X52895428Y-92972000D01*
X52943047Y-93019619D01*
X52990666Y-93114857D01*
X52990666Y-93210095D01*
X52943047Y-93352952D01*
X52371619Y-93924380D01*
X52990666Y-93924380D01*
X74318833Y-74937880D02*
X73985500Y-74461690D01*
X73747404Y-74937880D02*
X73747404Y-73937880D01*
X74128357Y-73937880D01*
X74223595Y-73985500D01*
X74271214Y-74033119D01*
X74318833Y-74128357D01*
X74318833Y-74271214D01*
X74271214Y-74366452D01*
X74223595Y-74414071D01*
X74128357Y-74461690D01*
X73747404Y-74461690D01*
X74699785Y-74033119D02*
X74747404Y-73985500D01*
X74842642Y-73937880D01*
X75080738Y-73937880D01*
X75175976Y-73985500D01*
X75223595Y-74033119D01*
X75271214Y-74128357D01*
X75271214Y-74223595D01*
X75223595Y-74366452D01*
X74652166Y-74937880D01*
X75271214Y-74937880D01*
X74318833Y-78557380D02*
X73985500Y-78081190D01*
X73747404Y-78557380D02*
X73747404Y-77557380D01*
X74128357Y-77557380D01*
X74223595Y-77605000D01*
X74271214Y-77652619D01*
X74318833Y-77747857D01*
X74318833Y-77890714D01*
X74271214Y-77985952D01*
X74223595Y-78033571D01*
X74128357Y-78081190D01*
X73747404Y-78081190D01*
X74652166Y-77557380D02*
X75271214Y-77557380D01*
X74937880Y-77938333D01*
X75080738Y-77938333D01*
X75175976Y-77985952D01*
X75223595Y-78033571D01*
X75271214Y-78128809D01*
X75271214Y-78366904D01*
X75223595Y-78462142D01*
X75175976Y-78509761D01*
X75080738Y-78557380D01*
X74795023Y-78557380D01*
X74699785Y-78509761D01*
X74652166Y-78462142D01*
X74382333Y-82049880D02*
X74049000Y-81573690D01*
X73810904Y-82049880D02*
X73810904Y-81049880D01*
X74191857Y-81049880D01*
X74287095Y-81097500D01*
X74334714Y-81145119D01*
X74382333Y-81240357D01*
X74382333Y-81383214D01*
X74334714Y-81478452D01*
X74287095Y-81526071D01*
X74191857Y-81573690D01*
X73810904Y-81573690D01*
X75239476Y-81383214D02*
X75239476Y-82049880D01*
X75001380Y-81002261D02*
X74763285Y-81716547D01*
X75382333Y-81716547D01*
X74318833Y-71318380D02*
X73985500Y-70842190D01*
X73747404Y-71318380D02*
X73747404Y-70318380D01*
X74128357Y-70318380D01*
X74223595Y-70366000D01*
X74271214Y-70413619D01*
X74318833Y-70508857D01*
X74318833Y-70651714D01*
X74271214Y-70746952D01*
X74223595Y-70794571D01*
X74128357Y-70842190D01*
X73747404Y-70842190D01*
X75223595Y-70318380D02*
X74747404Y-70318380D01*
X74699785Y-70794571D01*
X74747404Y-70746952D01*
X74842642Y-70699333D01*
X75080738Y-70699333D01*
X75175976Y-70746952D01*
X75223595Y-70794571D01*
X75271214Y-70889809D01*
X75271214Y-71127904D01*
X75223595Y-71223142D01*
X75175976Y-71270761D01*
X75080738Y-71318380D01*
X74842642Y-71318380D01*
X74747404Y-71270761D01*
X74699785Y-71223142D01*
X125245833Y-78850880D02*
X124912500Y-78374690D01*
X124674404Y-78850880D02*
X124674404Y-77850880D01*
X125055357Y-77850880D01*
X125150595Y-77898500D01*
X125198214Y-77946119D01*
X125245833Y-78041357D01*
X125245833Y-78184214D01*
X125198214Y-78279452D01*
X125150595Y-78327071D01*
X125055357Y-78374690D01*
X124674404Y-78374690D01*
X126102976Y-77850880D02*
X125912500Y-77850880D01*
X125817261Y-77898500D01*
X125769642Y-77946119D01*
X125674404Y-78088976D01*
X125626785Y-78279452D01*
X125626785Y-78660404D01*
X125674404Y-78755642D01*
X125722023Y-78803261D01*
X125817261Y-78850880D01*
X126007738Y-78850880D01*
X126102976Y-78803261D01*
X126150595Y-78755642D01*
X126198214Y-78660404D01*
X126198214Y-78422309D01*
X126150595Y-78327071D01*
X126102976Y-78279452D01*
X126007738Y-78231833D01*
X125817261Y-78231833D01*
X125722023Y-78279452D01*
X125674404Y-78327071D01*
X125626785Y-78422309D01*
X86931595Y-73830380D02*
X86931595Y-74639904D01*
X86979214Y-74735142D01*
X87026833Y-74782761D01*
X87122071Y-74830380D01*
X87312547Y-74830380D01*
X87407785Y-74782761D01*
X87455404Y-74735142D01*
X87503023Y-74639904D01*
X87503023Y-73830380D01*
X87883976Y-73830380D02*
X88503023Y-73830380D01*
X88169690Y-74211333D01*
X88312547Y-74211333D01*
X88407785Y-74258952D01*
X88455404Y-74306571D01*
X88503023Y-74401809D01*
X88503023Y-74639904D01*
X88455404Y-74735142D01*
X88407785Y-74782761D01*
X88312547Y-74830380D01*
X88026833Y-74830380D01*
X87931595Y-74782761D01*
X87883976Y-74735142D01*
X59309095Y-83399380D02*
X59309095Y-84208904D01*
X59356714Y-84304142D01*
X59404333Y-84351761D01*
X59499571Y-84399380D01*
X59690047Y-84399380D01*
X59785285Y-84351761D01*
X59832904Y-84304142D01*
X59880523Y-84208904D01*
X59880523Y-83399380D01*
X60880523Y-84399380D02*
X60309095Y-84399380D01*
X60594809Y-84399380D02*
X60594809Y-83399380D01*
X60499571Y-83542238D01*
X60404333Y-83637476D01*
X60309095Y-83685095D01*
X64135095Y-119530880D02*
X64135095Y-120340404D01*
X64182714Y-120435642D01*
X64230333Y-120483261D01*
X64325571Y-120530880D01*
X64516047Y-120530880D01*
X64611285Y-120483261D01*
X64658904Y-120435642D01*
X64706523Y-120340404D01*
X64706523Y-119530880D01*
X65611285Y-119864214D02*
X65611285Y-120530880D01*
X65373190Y-119483261D02*
X65135095Y-120197547D01*
X65754142Y-120197547D01*
X81962333Y-75959642D02*
X81914714Y-76007261D01*
X81771857Y-76054880D01*
X81676619Y-76054880D01*
X81533761Y-76007261D01*
X81438523Y-75912023D01*
X81390904Y-75816785D01*
X81343285Y-75626309D01*
X81343285Y-75483452D01*
X81390904Y-75292976D01*
X81438523Y-75197738D01*
X81533761Y-75102500D01*
X81676619Y-75054880D01*
X81771857Y-75054880D01*
X81914714Y-75102500D01*
X81962333Y-75150119D01*
X82819476Y-75054880D02*
X82629000Y-75054880D01*
X82533761Y-75102500D01*
X82486142Y-75150119D01*
X82390904Y-75292976D01*
X82343285Y-75483452D01*
X82343285Y-75864404D01*
X82390904Y-75959642D01*
X82438523Y-76007261D01*
X82533761Y-76054880D01*
X82724238Y-76054880D01*
X82819476Y-76007261D01*
X82867095Y-75959642D01*
X82914714Y-75864404D01*
X82914714Y-75626309D01*
X82867095Y-75531071D01*
X82819476Y-75483452D01*
X82724238Y-75435833D01*
X82533761Y-75435833D01*
X82438523Y-75483452D01*
X82390904Y-75531071D01*
X82343285Y-75626309D01*
X129397166Y-71607880D02*
X129397166Y-72322166D01*
X129349547Y-72465023D01*
X129254309Y-72560261D01*
X129111452Y-72607880D01*
X129016214Y-72607880D01*
X130301928Y-71941214D02*
X130301928Y-72607880D01*
X130063833Y-71560261D02*
X129825738Y-72274547D01*
X130444785Y-72274547D01*
X121963833Y-80113142D02*
X121916214Y-80160761D01*
X121773357Y-80208380D01*
X121678119Y-80208380D01*
X121535261Y-80160761D01*
X121440023Y-80065523D01*
X121392404Y-79970285D01*
X121344785Y-79779809D01*
X121344785Y-79636952D01*
X121392404Y-79446476D01*
X121440023Y-79351238D01*
X121535261Y-79256000D01*
X121678119Y-79208380D01*
X121773357Y-79208380D01*
X121916214Y-79256000D01*
X121963833Y-79303619D01*
X122297166Y-79208380D02*
X122963833Y-79208380D01*
X122535261Y-80208380D01*
X51816095Y-125099380D02*
X51816095Y-124099380D01*
X51816095Y-124575571D02*
X52387523Y-124575571D01*
X52387523Y-125099380D02*
X52387523Y-124099380D01*
X53387523Y-125099380D02*
X52816095Y-125099380D01*
X53101809Y-125099380D02*
X53101809Y-124099380D01*
X53006571Y-124242238D01*
X52911333Y-124337476D01*
X52816095Y-124385095D01*
X51816095Y-65790380D02*
X51816095Y-64790380D01*
X51816095Y-65266571D02*
X52387523Y-65266571D01*
X52387523Y-65790380D02*
X52387523Y-64790380D01*
X52816095Y-64885619D02*
X52863714Y-64838000D01*
X52958952Y-64790380D01*
X53197047Y-64790380D01*
X53292285Y-64838000D01*
X53339904Y-64885619D01*
X53387523Y-64980857D01*
X53387523Y-65076095D01*
X53339904Y-65218952D01*
X52768476Y-65790380D01*
X53387523Y-65790380D01*
X134366095Y-124972380D02*
X134366095Y-123972380D01*
X134366095Y-124448571D02*
X134937523Y-124448571D01*
X134937523Y-124972380D02*
X134937523Y-123972380D01*
X135318476Y-123972380D02*
X135937523Y-123972380D01*
X135604190Y-124353333D01*
X135747047Y-124353333D01*
X135842285Y-124400952D01*
X135889904Y-124448571D01*
X135937523Y-124543809D01*
X135937523Y-124781904D01*
X135889904Y-124877142D01*
X135842285Y-124924761D01*
X135747047Y-124972380D01*
X135461333Y-124972380D01*
X135366095Y-124924761D01*
X135318476Y-124877142D01*
X134366095Y-65790380D02*
X134366095Y-64790380D01*
X134366095Y-65266571D02*
X134937523Y-65266571D01*
X134937523Y-65790380D02*
X134937523Y-64790380D01*
X135842285Y-65123714D02*
X135842285Y-65790380D01*
X135604190Y-64742761D02*
X135366095Y-65457047D01*
X135985142Y-65457047D01*
M02*
