M48
; DRILL file {KiCad (5.1.5)-3} date 15/05/2020 18:58:40
; FORMAT={-:-/ absolute / metric / decimal}
; #@! TF.CreationDate,2020-05-15T18:58:40+01:00
; #@! TF.GenerationSoftware,Kicad,Pcbnew,(5.1.5)-3
; #@! TF.FileFunction,Plated,1,2,PTH
FMAT,2
METRIC
T1C0.400
T2C0.600
T3C0.800
T4C0.900
T5C1.000
T6C3.048
T7C3.200
%
G90
G05
T1
X63.495Y-101.16
X65.024Y-103.569
X65.341Y-117.729
X66.04Y-110.045
X66.865Y-117.792
X67.501Y-87.249
X74.231Y-93.281
X76.962Y-86.233
X77.47Y-88.138
X77.47Y-95.178
X77.66Y-73.66
X77.66Y-94.043
X81.915Y-84.582
X81.915Y-94.996
X82.74Y-124.523
X82.804Y-111.316
X82.931Y-76.898
X83.693Y-96.837
X83.757Y-99.504
X83.82Y-92.9
X83.883Y-104.902
X84.01Y-102.298
X84.138Y-110.934
X85.217Y-90.678
X85.534Y-108.839
X85.852Y-121.92
X86.042Y-119.57
X86.169Y-117.284
X86.55Y-88.265
X88.328Y-85.661
X88.963Y-122.301
X89.662Y-81.788
X89.662Y-113.602
X91.504Y-118.745
X91.567Y-121.73
X91.821Y-84.328
X91.821Y-86.995
X91.948Y-80.581
X91.948Y-89.471
X92.011Y-99.187
X92.964Y-81.597
X92.964Y-97.028
X93.091Y-91.757
X97.282Y-115.76
X97.472Y-77.978
X97.472Y-89.535
X97.599Y-81.852
X104.203Y-88.138
X104.331Y-76.962
X105.283Y-75.374
X105.474Y-91.821
X106.426Y-84.582
X106.553Y-123.444
X106.87Y-118.681
X106.934Y-86.995
X108.712Y-84.645
X109.029Y-123.825
X109.156Y-117.284
X110.045Y-121.221
X110.109Y-114.808
X111.061Y-116.332
X111.125Y-122.491
X111.633Y-84.645
X111.85Y-118.745
X111.85Y-119.888
X118.11Y-90.233
X118.427Y-77.978
X118.554Y-108.331
X118.554Y-116.078
X119.57Y-98.996
X119.57Y-117.348
X119.888Y-123.888
X120.015Y-119.825
X120.295Y-102.362
X120.713Y-122.237
X121.349Y-105.791
X121.73Y-123.317
X121.947Y-108.966
X122.454Y-119.444
X122.555Y-114.808
X123.126Y-124.079
X123.444Y-118.3
T2
X60.833Y-125.031
X62.103Y-125.031
X63.373Y-125.031
T3
X120.88Y-75.946
X123.38Y-75.946
X65.405Y-83.312
X75.565Y-83.312
X79.629Y-73.343
X84.629Y-73.343
X120.332Y-80.709
X130.493Y-80.709
X120.349Y-83.757
X125.349Y-83.757
X65.405Y-79.629
X75.565Y-79.629
X65.341Y-76.136
X75.501Y-76.136
X100.584Y-76.708
X100.584Y-79.248
X100.584Y-81.788
X100.584Y-84.328
X100.584Y-86.868
X100.584Y-89.408
X100.584Y-91.948
X100.584Y-94.488
X100.584Y-97.028
X100.584Y-99.568
X100.584Y-102.108
X100.584Y-104.648
X100.584Y-107.188
X100.584Y-109.728
X100.584Y-112.268
X100.584Y-114.808
X100.584Y-117.348
X100.584Y-119.888
X100.584Y-122.428
X100.584Y-124.968
X115.824Y-76.708
X115.824Y-79.248
X115.824Y-81.788
X115.824Y-84.328
X115.824Y-86.868
X115.824Y-89.408
X115.824Y-91.948
X115.824Y-94.488
X115.824Y-97.028
X115.824Y-99.568
X115.824Y-102.108
X115.824Y-104.648
X115.824Y-107.188
X115.824Y-109.728
X115.824Y-112.268
X115.824Y-114.808
X115.824Y-117.348
X115.824Y-119.888
X115.824Y-122.428
X115.824Y-124.968
X65.405Y-72.581
X75.565Y-72.581
X90.868Y-73.406
X95.868Y-73.406
X60.389Y-86.868
X60.389Y-89.408
X60.389Y-91.948
X60.389Y-94.488
X60.389Y-97.028
X60.389Y-99.568
X60.389Y-102.108
X60.389Y-104.648
X60.389Y-107.188
X60.389Y-109.728
X60.389Y-112.268
X60.389Y-114.808
X60.389Y-117.348
X60.389Y-119.888
X75.629Y-86.868
X75.629Y-89.408
X75.629Y-91.948
X75.629Y-94.488
X75.629Y-97.028
X75.629Y-99.568
X75.629Y-102.108
X75.629Y-104.648
X75.629Y-107.188
X75.629Y-109.728
X75.629Y-112.268
X75.629Y-114.808
X75.629Y-117.348
X75.629Y-119.888
X100.283Y-73.343
X105.283Y-73.343
X66.23Y-123.571
X76.391Y-123.571
X68.533Y-126.809
X73.533Y-126.809
X61.087Y-70.04
X61.087Y-72.54
X122.237Y-88.265
X122.237Y-95.885
X129.857Y-88.265
X129.857Y-95.885
X80.073Y-76.708
X80.073Y-79.248
X80.073Y-81.788
X80.073Y-84.328
X80.073Y-86.868
X80.073Y-89.408
X80.073Y-91.948
X80.073Y-94.488
X80.073Y-97.028
X80.073Y-99.568
X80.073Y-102.108
X80.073Y-104.648
X80.073Y-107.188
X80.073Y-109.728
X80.073Y-112.268
X80.073Y-114.808
X80.073Y-117.348
X80.073Y-119.888
X80.073Y-122.428
X80.073Y-124.968
X95.313Y-76.708
X95.313Y-79.248
X95.313Y-81.788
X95.313Y-84.328
X95.313Y-86.868
X95.313Y-89.408
X95.313Y-91.948
X95.313Y-94.488
X95.313Y-97.028
X95.313Y-99.568
X95.313Y-102.108
X95.313Y-104.648
X95.313Y-107.188
X95.313Y-109.728
X95.313Y-112.268
X95.313Y-114.808
X95.313Y-117.348
X95.313Y-119.888
X95.313Y-122.428
X95.313Y-124.968
T4
X52.324Y-77.724
X52.324Y-82.804
T5
X129.731Y-74.486
X129.731Y-77.025
X61.658Y-77.025
X61.658Y-79.566
X61.658Y-82.105
X126.492Y-102.108
X126.492Y-104.648
X126.492Y-107.188
X126.492Y-109.728
X126.492Y-112.268
X126.492Y-114.808
X126.492Y-117.348
X126.492Y-119.888
X126.492Y-122.428
X126.492Y-124.968
X129.032Y-102.108
X129.032Y-104.648
X129.032Y-107.188
X129.032Y-109.728
X129.032Y-112.268
X129.032Y-114.808
X129.032Y-117.348
X129.032Y-119.888
X129.032Y-122.428
X129.032Y-124.968
T6
X52.324Y-88.9
X52.324Y-96.52
T7
X52.578Y-69.088
X52.578Y-128.397
X135.128Y-69.088
X135.128Y-128.27
T0
M30
